<svg xmlns="http://www.w3.org/2000/svg" xmlns:xlink="http://www.w3.org/1999/xlink" width="678.000000" height="678.000000" viewBox="0 0 678 678"><clipPath id="clip_1_4511"><path d="M0 0L678 0L678 678L0 678L0 0L0 0Z"/></clipPath><g clip-path="url(#clip_1_4511)"><path d="M139.56 239.851L139.56 398.881C139.56 399.221 139.65 399.531 139.82 399.831C139.99 400.121 140.22 400.351 140.52 400.531L210.3 440.751C210.57 440.911 210.87 440.991 211.19 441.001C211.51 441.011 211.81 440.941 212.1 440.801L364.47 364.631C364.79 364.461 365.04 364.231 365.23 363.931C365.42 363.621 365.52 363.281 365.52 362.931L365.51 122.731C365.51 122.381 365.43 122.071 365.26 121.771C365.09 121.481 364.86 121.251 364.56 121.071L155.22 0.250938C154.94 0.0909424 154.64 0.0109406 154.32 0.000938416C154 -0.00906372 153.7 0.0609436 153.41 0.200943L1.05994 76.3809C0.72998 76.5409 0.469971 76.7809 0.290039 77.0809C0.0899658 77.3909 0 77.7209 0 78.0909L0 158.151C0 158.491 0.0899658 158.811 0.25 159.101C0.430054 159.401 0.660034 159.631 0.950073 159.801L139.56 239.851L139.56 239.851ZM143.37 397.781L143.37 238.751C143.37 238.411 143.29 238.091 143.12 237.801C142.95 237.501 142.72 237.271 142.42 237.101L3.80994 157.051L3.80994 81.3809L209.34 200.001L209.34 435.801L143.37 397.781L143.37 397.781ZM213.15 436.021L361.71 361.751L361.7 125.801L213.15 200.081L213.15 436.021L213.15 436.021ZM359.59 122.601L154.2 4.07094L5.92004 78.2009L211.31 196.741L359.59 122.601L359.59 122.601Z" fill="#487DE7" fill-opacity="1.000000" fill-rule="evenodd" transform="matrix(1 0 0 1 292.37 27.249)"/></g><clipPath id="clip_1_4512"><path d="M0 0L678 0L678 678L0 678L0 0L0 0Z"/></clipPath><g clip-path="url(#clip_1_4512)"><path d="M2.76001 159.93L155.12 83.7596C155.82 83.4096 156.17 82.8396 156.17 82.0496L156.17 1.98962C156.17 1.68964 156.1 1.39966 155.97 1.13965C155.68 0.56958 155.33 0.219604 154.9 0.0695801C154.48 -0.0703735 153.98 -0.000366211 153.41 0.289612L1.05005 76.4696C0.699951 76.6396 0.440063 76.8696 0.26001 77.1496C0.0899658 77.4396 0 77.7697 0 78.1696L0 158.23C0 158.53 0.0699463 158.82 0.199951 159.08C0.47998 159.65 0.839966 160.01 1.26001 160.15C1.69006 160.29 2.19006 160.22 2.76001 159.93L2.76001 159.93Z" fill="#487DE7" fill-opacity="1.000000" fill-rule="evenodd" transform="matrix(1 0 0 1 222.59 467.26)"/></g><clipPath id="clip_1_4513"><path d="M0 0L678 0L678 678L0 678L0 0L0 0Z"/></clipPath><g clip-path="url(#clip_1_4513)"><path d="M225.96 201.24L225.95 42.21C225.95 41.87 225.87 41.55 225.7 41.26C225.53 40.96 225.3 40.73 225 40.56L155.22 0.259995C154.94 0.100006 154.64 0.0200043 154.32 0C154 0 153.7 0.0599976 153.42 0.199997L1.06 76.38C0.72998 76.55 0.47998 76.78 0.289978 77.09C0.0999756 77.39 0 77.73 0 78.09L0 318.29C0 318.63 0.0900269 318.94 0.26001 319.23C0.429993 319.53 0.659973 319.76 0.960022 319.93L210.22 440.75C210.68 441.01 211.16 441.08 211.67 440.94C212.18 440.81 212.56 440.51 212.82 440.05C212.91 439.91 212.97 439.76 213.01 439.6C213.06 439.43 213.08 439.27 213.08 439.11L213.08 360.21L364.39 284.57C364.55 284.48 364.71 284.38 364.84 284.25C364.98 284.12 365.09 283.98 365.19 283.81C365.45 283.36 365.51 282.88 365.37 282.37C365.24 281.86 364.95 281.48 364.49 281.21L225.96 201.24L225.96 201.24ZM222.15 201.16L73.59 275.44L73.59 119.57L222.14 45.29L222.15 201.16L222.15 201.16ZM220.03 42.09L154.2 4.07001L5.92999 78.21L71.75 116.23L220.03 42.09L220.03 42.09ZM69.78 119.49L69.78 278.52C69.78 278.86 69.87 279.18 70.04 279.47C70.21 279.77 70.44 280 70.74 280.17L209.27 360.14L209.27 435.8L3.81 317.18L3.81 81.39L69.78 119.49L69.78 119.49ZM75.71 278.64L211.24 356.88L359.52 282.74L223.99 204.5L75.71 278.64L75.71 278.64Z" fill="#487DE7" fill-opacity="1.000000" fill-rule="evenodd" transform="matrix(1 0 0 1 13.32 186.39)"/></g></svg>