<svg xmlns="http://www.w3.org/2000/svg" xmlns:xlink="http://www.w3.org/1999/xlink" width="1113.000000" height="934.999939" viewBox="0 0 1113 935"><clipPath id="clip_48_306"><path d="M429 0L1113 0L1113 684L429 684L429 0L429 0Z"/></clipPath><g clip-path="url(#clip_48_306)"><path d="M415.24 560.356C426.07 550.146 434.94 537.866 441.86 523.496C453.97 498.146 460.03 466.256 460.03 427.836C460.03 392.696 454.32 355.726 442.91 316.926C432.13 280.426 416.98 244.816 397.48 210.086C396.17 207.666 394.87 205.326 393.58 203.076C393.28 202.546 392.84 202.206 392.25 202.046C391.67 201.886 391.11 201.956 390.59 202.256L360.46 219.416L232.2 292.526L232.2 34.8662C232.2 34.4762 232.1 34.1162 231.91 33.7762C231.71 33.4362 231.44 33.1662 231.1 32.9662C202.79 16.6862 176.46 6.42621 152.12 2.18622C130.14 -1.57379 109.68 -0.483795 90.75 5.45624C86.46 6.80621 82.25 8.39624 78.11 10.2362L67.4301 15.6162C67.41 15.6262 67.35 15.6562 67.33 15.6662C59.24 20.2862 51.87 25.6862 45.24 31.8762C15.0801 59.9862 0 104.286 0 164.766C0 238.146 22.17 313.076 66.52 389.546C110.85 466.046 164.98 522.736 228.91 559.636C282.26 590.476 328.94 599.716 368.95 587.356C377.17 584.816 385.11 581.366 392.76 576.996C401.01 572.256 408.51 566.706 415.24 560.356L415.24 560.356ZM437.91 521.596C431.19 535.546 422.56 547.476 412.02 557.366C405.59 563.396 398.44 568.676 390.58 573.196C383.5 577.236 376.16 580.456 368.56 582.866C329.54 595.266 283.73 586.256 231.11 555.836C167.85 519.336 114.25 463.166 70.3101 387.346C26.36 311.556 4.38 237.366 4.38 164.766C4.38 105.156 19.23 61.7162 48.9301 34.4562C55.12 28.7662 61.96 23.7862 69.45 19.5062L79.9401 14.2262C83.6901 12.5562 87.5 11.0962 91.39 9.85623C109.84 3.93622 129.84 2.82623 151.38 6.51624C174.89 10.6062 200.37 20.4762 227.82 36.1362L227.82 296.296C227.82 296.906 228.03 297.426 228.46 297.846C228.89 298.276 229.41 298.496 230.01 298.496C230.2 298.496 230.39 298.466 230.57 298.416C230.76 298.376 230.93 298.296 231.1 298.206L362.64 223.226L390.85 207.156C391.77 208.786 392.69 210.456 393.63 212.176C412.99 246.656 428.01 281.986 438.7 318.166C450 356.566 455.64 393.116 455.64 427.836C455.64 465.586 449.73 496.836 437.91 521.596L437.91 521.596Z" fill="#487DE7" fill-opacity="1.000000" fill-rule="evenodd" transform="matrix(1 0 0 1 459.84 79.1838)"/></g><clipPath id="clip_48_307"><path d="M429 0L1113 0L1113 684L429 684L429 0L429 0Z"/></clipPath><g clip-path="url(#clip_48_307)"><path d="M3.28003 331.308L134.82 256.328C135.16 256.138 135.43 255.868 135.62 255.528C135.82 255.188 135.92 254.818 135.92 254.428L135.92 2.19772C135.92 2.02771 135.9 1.85773 135.86 1.69772C135.82 1.53772 135.77 1.37772 135.69 1.21771C135.42 0.677704 135 0.307709 134.43 0.117706C133.85 -0.0722961 133.29 -0.0322876 132.75 0.237732L1.20996 66.0077C0.839966 66.1977 0.550049 66.4677 0.330078 66.8177C0.110107 67.1677 0 67.5577 0 67.9677L0 329.408C0 329.598 0.0200195 329.778 0.0700684 329.968C0.120117 330.148 0.189941 330.328 0.290039 330.488C0.590088 331.018 1.03003 331.358 1.61011 331.518C2.18994 331.678 2.75 331.608 3.28003 331.308L3.28003 331.308Z" fill="#487DE7" fill-opacity="1.000000" fill-rule="evenodd" transform="matrix(1 0 0 1 687.66 46.0823)"/></g><clipPath id="clip_48_308"><path d="M429 0L1113 0L1113 684L429 684L429 0L429 0Z"/></clipPath><g clip-path="url(#clip_48_308)"><path d="M74.5623 72.2814C98.3923 76.4214 124.242 86.5015 152.112 102.531C152.432 102.721 152.772 102.811 153.142 102.831C153.512 102.831 153.852 102.761 154.182 102.601L285.722 36.8315C285.912 36.7314 286.092 36.6115 286.242 36.4615C286.402 36.3115 286.532 36.1515 286.642 35.9615C286.942 35.4315 287.012 34.8815 286.862 34.3015C286.702 33.7115 286.362 33.2715 285.842 32.9715C232.392 2.13145 185.672 -7.07855 145.692 5.36145C137.552 7.89145 129.692 11.3115 122.112 15.6315L1.22229 76.0515C0.692383 76.3115 0.332275 76.7214 0.132324 77.2715C-0.0576172 77.8215 -0.0477295 78.3615 0.192383 78.9015C0.442383 79.4515 0.852295 79.8415 1.41235 80.0615C1.9823 80.2715 2.54224 80.2615 3.09229 80.0115C6.8623 78.3315 10.6924 76.8615 14.6023 75.6115C33.0522 69.7015 53.0422 68.5915 74.5623 72.2814L74.5623 72.2814ZM153.272 98.1515C125.352 82.2015 99.3623 72.1414 75.3123 67.9615C58.4523 65.0715 42.4723 65.0414 27.4023 67.8615L124.132 19.5315C124.142 19.5215 124.222 19.4815 124.232 19.4715C131.262 15.4615 138.542 12.2514 146.092 9.84146C184.212 -2.33855 228.882 5.96146 280.092 34.7415L153.272 98.1515L153.272 98.1515Z" fill="#487DE7" fill-opacity="1.000000" fill-rule="evenodd" transform="matrix(1 0 0 1 536.648 13.4185)"/></g><clipPath id="clip_48_309"><path d="M429 0L1113 0L1113 684L429 684L429 0L429 0Z"/></clipPath><g clip-path="url(#clip_48_309)"><path d="M123.744 380.622L134.724 375.102C134.744 375.082 134.813 375.052 134.833 375.042C142.853 370.462 150.153 365.112 156.744 358.992C186.984 330.882 202.104 286.512 202.104 225.882C202.104 190.742 196.383 153.762 184.984 114.962C173.514 76.1419 157.063 38.192 135.643 1.10193C135.353 0.601929 134.923 0.261932 134.373 0.101929C133.813 -0.0680542 133.284 -0.0280762 132.764 0.241943L1.22351 66.012C1.20349 66.012 1.13342 66.0519 1.1134 66.062C0.593506 66.3619 0.243408 66.8019 0.0834961 67.3919C-0.0765381 67.9719 -0.00646973 68.5319 0.293457 69.0519C1.57349 71.2819 2.8634 73.6019 4.17346 76.012C23.5236 110.472 38.5435 145.792 49.2235 181.972C60.5234 220.372 66.1735 256.932 66.1735 291.652C66.1735 329.402 60.2635 360.652 48.4335 385.402C41.7135 399.372 33.0835 411.292 22.5435 421.172C16.1134 427.212 8.9635 432.492 1.1134 437.012C0.603394 437.302 0.27356 437.722 0.103394 438.272C-0.0665283 438.832 -0.0164795 439.372 0.243408 439.892C0.51355 440.432 0.933472 440.792 1.51355 440.982C2.0835 441.182 2.64343 441.142 3.18347 440.872L123.744 380.622L123.744 380.622ZM132.703 371.202L121.774 376.702L24.5835 425.272C24.9835 424.902 25.3734 424.542 25.7634 424.172C36.6034 413.962 45.4735 401.672 52.3835 387.312C64.5035 361.942 70.5635 330.062 70.5635 291.652C70.5635 256.512 64.8534 219.542 53.4335 180.732C42.6534 144.232 27.5135 108.602 7.99353 73.8719C7.07349 72.1719 6.16345 70.512 5.25354 68.8919L132.873 5.08194C153.623 41.3019 169.583 78.3419 180.763 116.212C192.073 154.602 197.714 191.162 197.714 225.882C197.714 285.652 182.833 329.152 153.063 356.402C146.913 362.032 140.123 366.962 132.703 371.202L132.703 371.202Z" fill="#487DE7" fill-opacity="1.000000" fill-rule="evenodd" transform="matrix(1 0 0 1 849.307 215.378)"/></g><clipPath id="clip_48_310"><path d="M0 228L707 228L707 935L0 935L0 228L0 228Z"/></clipPath><g clip-path="url(#clip_48_310)"><path d="M0 3.90997L7.69 0" fill="#487DE7" fill-opacity="1.000000" transform="matrix(1 0 0 1 56.95 329.37)"/><path d="M0 3.90997L7.69 0" fill="none" stroke="#ECFFC3" stroke-opacity="1.000000" stroke-width="3" stroke-linejoin="round" stroke-linecap="round" stroke-dasharray="0 0" transform="matrix(1 0 0 1 56.95 329.37)"/></g><clipPath id="clip_48_311"><path d="M0 228L707 228L707 935L0 935L0 228L0 228Z"/></clipPath><g clip-path="url(#clip_48_311)"><path d="M559.23 410.327C558.68 403.647 557.81 396.827 556.61 389.917C556.06 386.587 555.33 382.847 554.43 378.687C554.02 376.747 553.48 374.357 552.81 371.527C545.54 342.077 533.23 312.377 515.87 282.437C501.06 256.707 484.53 234.287 466.29 215.177C463.73 212.527 461.79 210.547 460.51 209.257C458.2 206.957 455.42 204.317 452.14 201.337C438.28 188.657 423.5 177.757 407.79 168.647L183.16 38.4772L171.07 31.4672L154.45 21.8572C146.22 17.0173 137.93 12.9173 129.58 9.54724C115.6 3.83722 102.32 0.707214 89.76 0.127258C80.93 -0.342712 72.45 0.487244 64.31 2.64728C60.73 3.59723 57.21 4.80725 53.76 6.26727L45.36 10.4572C39.75 13.6273 34.59 17.3973 30.02 21.6772C10.06 40.3872 0.0599976 69.7172 0 109.667C0 158.597 14.79 208.627 44.36 259.757C74.01 311.027 110.06 348.957 152.51 373.547L405.79 520.277C441 540.647 471.92 546.817 498.55 538.777C504.23 537.057 509.72 534.707 515.01 531.697C521.72 527.837 527.67 523.237 532.85 517.897C536.28 514.377 539.37 510.527 542.12 506.347C548.87 496.167 553.76 483.877 556.79 469.487C559.13 458.307 560.29 445.967 560.29 432.467C560.29 430.837 560.26 428.527 560.17 425.547C560.05 420.527 559.73 415.447 559.23 410.327L559.23 410.327ZM553.66 390.427C554.84 397.267 555.7 403.977 556.25 410.577C556.74 415.627 557.05 420.667 557.17 425.627C557.26 428.587 557.29 430.867 557.29 432.467C557.29 445.767 556.15 457.897 553.85 468.877C550.9 482.887 546.16 494.827 539.62 504.697C536.97 508.707 534 512.407 530.71 515.797C525.72 520.947 519.99 525.377 513.52 529.087C508.63 531.867 503.55 534.077 498.3 535.707C472.33 543.767 441.99 537.757 407.29 517.687L154.01 370.957C112.03 346.627 76.34 309.057 46.96 258.257C17.66 207.587 3 158.057 3 109.667C3.06 70.3073 12.9 41.5772 32.54 23.4473C36.81 19.5073 41.54 16.0673 46.74 13.1273L54.97 9.00726C58.12 7.67725 61.33 6.56726 64.61 5.67725C72.59 3.50726 80.93 2.65729 89.63 3.12726C101.84 3.68726 114.78 6.74725 128.45 12.3272C136.67 15.6373 144.84 19.6873 152.95 24.4572L169.56 34.0573L181.66 41.0673L406.29 171.247C421.81 180.247 436.42 191.017 450.12 203.557C453.36 206.507 456.11 209.117 458.38 211.377C459.65 212.657 461.57 214.617 464.13 217.247C482.19 236.187 498.58 258.417 513.28 283.947C530.49 313.637 542.7 343.057 549.89 372.217C550.56 375.027 551.09 377.397 551.5 379.327C552.39 383.437 553.11 387.137 553.66 390.427L553.66 390.427ZM509.18 413.997C509.38 411.847 509.5 409.647 509.56 407.457C509.56 407.147 509.57 406.637 509.58 406.007C509.6 404.737 509.59 403.767 509.56 403.097C509.56 396.717 509.21 390.637 508.5 384.867C506.87 369.977 503.12 354.887 497.25 339.597C492.77 327.597 486.93 315.387 479.72 302.977C474.35 293.567 468.5 284.687 462.19 276.337C447 256.127 429.72 240.117 410.35 228.327C409.73 227.947 408.84 227.427 407.68 226.767L404.44 224.837L178.02 93.7972L154.38 80.0872C145.1 74.7172 136.3 70.8472 128 68.4872C127.74 68.3973 127.39 68.3073 126.95 68.2172C114.93 64.9373 103.71 64.7473 93.46 67.6772C89.27 68.8773 85.23 70.5872 81.34 72.8173C80 73.5573 78.71 74.3572 77.45 75.2172C75.13 76.7873 72.93 78.5373 70.86 80.4772C70.7 80.6373 70.54 80.7972 70.37 80.9572C57.3 93.5972 50.74 112.967 50.67 139.057C50.67 171.457 60.62 204.847 80.52 239.227C100.49 273.677 124.51 299.057 152.57 315.377L405.91 462.047C426.04 473.777 444.23 478.367 460.47 475.817C463.15 475.417 465.77 474.827 468.32 474.027C472 472.877 475.55 471.307 478.97 469.307C483.02 467.027 486.67 464.327 489.9 461.207C495.58 455.727 500 448.957 503.17 440.887C503.52 440.167 503.95 439.097 504.45 437.677C506.92 430.647 508.5 422.757 509.18 413.997L509.18 413.997ZM506.56 407.387C506.51 409.527 506.38 411.637 506.2 413.727C505.54 422.237 504.01 429.897 501.63 436.687C501.15 438.027 500.76 439.007 500.46 439.617C500.45 439.627 500.41 439.717 500.4 439.737C497.36 447.497 493.11 453.987 487.64 459.217C484.63 462.097 481.25 464.587 477.5 466.697C474.05 468.707 470.47 470.257 466.76 471.367C464.56 472.017 462.32 472.507 460.03 472.847C444.47 475.287 426.94 470.817 407.42 459.457L154.08 312.777C126.47 296.737 102.82 271.717 83.11 237.727C63.49 203.807 53.67 170.917 53.67 139.057C53.74 113.507 60.15 94.7072 72.92 82.6673C74.84 80.8672 76.88 79.2272 79.03 77.7673C80.25 76.9373 81.5 76.1573 82.79 75.4373C86.38 73.3773 90.11 71.7873 93.97 70.6673C103.81 67.7873 114.53 67.9373 126.14 71.1172C126.15 71.1172 126.22 71.1273 126.24 71.1373C126.27 71.1473 126.32 71.1473 126.38 71.1673C126.68 71.2172 126.88 71.2673 126.97 71.3073C126.99 71.3173 127.09 71.3472 127.11 71.3572C135.2 73.6473 143.78 77.4272 152.88 82.6873L176.51 96.3873L402.94 227.427L406.15 229.347C407.29 230.007 408.2 230.527 408.81 230.897C427.84 242.487 444.84 258.237 459.79 278.137C466.03 286.387 471.81 295.167 477.12 304.467C484.25 316.737 490.02 328.797 494.44 340.647C500.22 355.717 503.92 370.557 505.52 385.187C506.22 390.877 506.56 396.867 506.56 403.127C506.59 403.737 506.6 404.727 506.58 405.967C506.57 406.597 506.56 407.067 506.56 407.387L506.56 407.387Z" fill="#487DE7" fill-opacity="1.000000" fill-rule="evenodd" transform="matrix(1 0 0 1 10.92 321.473)"/></g><clipPath id="clip_48_312"><path d="M0 228L707 228L707 935L0 935L0 228L0 228Z"/></clipPath><g clip-path="url(#clip_48_312)"><path d="M146.091 180.219C150.411 173.489 153.111 165.029 154.191 154.839C154.611 151.479 154.821 147.739 154.821 143.629C154.821 136.959 154.421 130.809 153.631 125.169C150.791 106.459 143.831 87.4692 132.731 68.2092C117.841 42.4993 99.7109 23.4492 78.3409 11.0392C76.5809 10.0292 74.8309 9.08923 73.0809 8.21924C57.891 0.369263 44.281 -1.85077 32.241 1.52924C30.261 2.08923 28.3309 2.78925 26.4409 3.64923L23.111 5.28925C20.2109 6.92926 17.511 8.89923 15.161 11.1093C8.14099 17.7393 3.55103 26.9492 1.39099 38.7393C0.470947 43.7993 0.000976562 49.4293 0.000976562 55.6193C-0.059082 70.7192 2.76099 86.1292 8.47095 101.859C12.111 111.699 16.7009 121.409 22.2209 130.989C37.151 156.769 55.261 175.819 76.541 188.149C94.241 198.429 109.841 201.579 123.331 197.589C126.301 196.719 129.161 195.499 131.921 193.929C133.991 192.759 135.931 191.419 137.731 189.919C140.961 187.219 143.741 183.989 146.091 180.219L146.091 180.219Z" fill="#487DE7" fill-opacity="1.000000" fill-rule="evenodd" transform="matrix(1 0 0 1 340.359 566.281)"/></g><clipPath id="clip_48_313"><path d="M0 228L707 228L707 935L0 935L0 228L0 228Z"/></clipPath><g clip-path="url(#clip_48_313)"><path d="M453.78 372.069C456.25 365.039 457.83 357.129 458.51 348.369C458.52 348.229 458.51 348.099 458.49 347.959C458.46 347.829 458.42 347.699 458.36 347.579C458.18 347.209 457.89 346.959 457.5 346.829C457.1 346.689 456.72 346.719 456.35 346.909L428.62 360.739L409.15 370.479C406.78 371.819 404.26 372.929 401.72 373.719C388.89 377.729 373.88 374.739 356.68 364.749C335.86 352.689 318.12 333.999 303.46 308.679C301.88 305.929 300.37 303.149 298.93 300.339C295.53 293.699 292.53 286.869 289.93 279.829C284.34 264.439 281.59 249.439 281.64 234.819C281.64 228.799 282.09 223.349 282.98 218.469C283.04 218.159 283 217.859 282.87 217.569C282.74 217.279 282.53 217.059 282.26 216.899L227.44 185.149C199.84 169.099 176.18 144.089 156.48 110.099C140.51 82.4493 131.04 55.5193 128.08 29.3093C128.05 29.0693 127.98 28.8593 127.84 28.6593C127.71 28.4593 127.55 28.2993 127.34 28.1793L103.71 14.4793C94.42 9.0993 85.62 5.22931 77.32 2.86932C77.06 2.7793 76.71 2.68927 76.28 2.5993C64.25 -0.670715 53.04 -0.860657 42.79 2.05927C38.6 3.25934 34.55 4.9693 30.66 7.20929C29.33 7.94928 28.03 8.74933 26.78 9.5993C24.46 11.1693 22.26 12.9293 20.19 14.8693C20.03 15.0193 19.86 15.1793 19.7 15.3393C6.63 27.9893 0.0599976 47.3593 0 73.4493C0 105.839 9.95001 139.229 29.85 173.619C49.82 208.059 73.83 233.449 101.9 249.759L355.24 396.429C375.37 408.159 393.55 412.749 409.79 410.199C412.48 409.799 415.09 409.209 417.65 408.409C421.33 407.259 424.88 405.689 428.3 403.699C432.35 401.419 436 398.709 439.23 395.589C444.91 390.119 449.33 383.339 452.5 375.279C452.85 374.559 453.28 373.489 453.78 372.069L453.78 372.069ZM450.95 371.069C450.48 372.409 450.09 373.389 449.78 373.999C449.78 374.019 449.74 374.099 449.73 374.119C446.69 381.889 442.43 388.379 436.96 393.609C433.95 396.479 430.57 398.979 426.82 401.079C423.38 403.089 419.8 404.639 416.09 405.749C413.89 406.399 411.65 406.889 409.35 407.229C393.8 409.669 376.26 405.209 356.75 393.839L103.4 247.159C75.8 231.119 52.15 206.099 32.44 172.109C12.81 138.189 3 105.299 3 73.4493C3.06 47.8993 9.47998 29.0993 22.25 17.0493C24.17 15.2493 26.21 13.6093 28.36 12.1493C29.58 11.3193 30.83 10.5493 32.12 9.82928C35.71 7.76929 39.44 6.17926 43.3 5.04932C53.14 2.17926 63.86 2.32928 75.46 5.49933C75.48 5.49933 75.55 5.51929 75.57 5.51929C75.6 5.5293 75.64 5.53931 75.71 5.54932C76.01 5.60931 76.2 5.6593 76.29 5.68927C76.32 5.69928 76.42 5.73932 76.44 5.73932C84.52 8.0293 93.11 11.8093 102.21 17.0693L125.18 30.3993C128.29 56.7893 137.85 83.8493 153.88 111.599C173.85 146.049 197.87 171.429 225.93 187.739L279.85 218.969C279.05 223.759 278.64 229.039 278.64 234.819C278.58 249.789 281.4 265.129 287.1 280.849C289.9 288.399 293.14 295.719 296.82 302.809C298.12 305.289 299.46 307.749 300.86 310.179C315.79 335.959 333.9 355.009 355.18 367.349C372.88 377.629 388.48 380.769 401.97 376.779C404.93 375.909 407.78 374.699 410.53 373.139L429.97 363.419L455.28 350.789C454.53 358.239 453.09 364.999 450.95 371.069L450.95 371.069Z" fill="#487DE7" fill-opacity="1.000000" fill-rule="evenodd" transform="matrix(1 0 0 1 61.59 387.091)"/></g><clipPath id="clip_48_314"><path d="M0 228L707 228L707 935L0 935L0 228L0 228Z"/></clipPath><g clip-path="url(#clip_48_314)"><path d="M154.379 189.361C154.579 187.211 154.699 185.031 154.759 182.821C154.759 182.511 154.769 182.001 154.779 181.371C154.799 180.101 154.789 179.131 154.759 178.471C154.759 172.421 154.379 166.341 153.639 160.231C152.009 145.341 148.259 130.261 142.389 114.971C137.909 102.961 132.059 90.7512 124.859 78.3412C119.479 68.9312 113.639 60.0512 107.329 51.7112C92.1385 31.4912 74.8586 15.4912 55.4886 3.69122C54.8586 3.32123 53.9686 2.79126 52.8086 2.13123L49.5886 0.211243C49.3687 0.0812378 49.1287 0.0112305 48.8787 0.0012207C48.6187 -0.00878906 48.3787 0.0412598 48.1486 0.161255L0.828613 23.8513C0.468628 24.0312 0.228638 24.3112 0.088623 24.6912C-0.0413818 25.0712 -0.0313721 25.4512 0.138672 25.8212C0.308594 26.1912 0.588623 26.4512 0.978638 26.6013C1.36865 26.7412 1.74866 26.7313 2.12866 26.5612C3.6687 25.8612 5.24866 25.2612 6.85864 24.7812C18.2986 21.3513 31.4087 23.4412 46.1687 31.0612C47.8787 31.9213 49.5886 32.8312 51.2986 33.8112C72.1986 45.9512 89.9586 64.6412 104.579 89.8812C115.489 108.821 122.329 127.451 125.109 145.781C125.969 151.851 126.399 157.861 126.399 163.801C126.399 167.791 126.189 171.421 125.789 174.681C124.749 184.461 122.189 192.521 118.129 198.861C116.169 202.001 113.869 204.741 111.209 207.091C109.319 208.761 107.259 210.231 105.019 211.491C104.669 211.691 104.439 211.981 104.319 212.361C104.209 212.741 104.239 213.111 104.419 213.471C104.599 213.841 104.889 214.091 105.279 214.221C105.679 214.351 106.059 214.321 106.429 214.141L125.899 204.401L153.559 190.571C153.799 190.461 153.989 190.291 154.129 190.071C154.279 189.861 154.359 189.621 154.379 189.361L154.379 189.361ZM151.759 182.761C151.709 184.611 151.609 186.451 151.469 188.261L124.559 201.721L116.959 205.521C118.309 203.951 119.549 202.261 120.669 200.441C124.979 193.731 127.679 185.241 128.769 175.001C129.189 171.651 129.399 167.921 129.399 163.801C129.399 157.721 128.959 151.571 128.079 145.361C125.239 126.641 118.279 107.651 107.179 88.3912C92.2986 62.6812 74.1687 43.6212 52.7986 31.2112C51.0386 30.2112 49.2686 29.2612 47.5087 28.3812C35.5786 22.2213 24.6187 19.5312 14.6287 20.3012L48.7587 3.21124L51.2786 4.71124C52.4286 5.37122 53.3286 5.90125 53.9486 6.26123C72.9786 17.8513 89.9686 33.6013 104.929 53.5112C111.169 61.7612 116.939 70.5312 122.259 79.8312C129.379 92.1013 135.159 104.171 139.579 116.011C145.359 131.081 149.049 145.931 150.649 160.551C151.389 166.581 151.759 172.571 151.759 178.501C151.789 179.101 151.799 180.091 151.779 181.331C151.769 181.961 151.759 182.441 151.759 182.761L151.759 182.761Z" fill="#487DE7" fill-opacity="1.000000" fill-rule="evenodd" transform="matrix(1 0 0 1 365.721 546.109)"/></g><clipPath id="clip_48_315"><path d="M0 228L707 228L707 935L0 935L0 228L0 228Z"/></clipPath><g clip-path="url(#clip_48_315)"><path d="M628.48 430.965C628.42 461.655 622.47 485.975 610.56 504.015C603.67 514.435 594.74 522.685 583.95 528.885L576.7 532.485L459.92 590.905C470.71 584.705 479.64 576.455 486.52 566.035C493.22 555.925 498 543.835 500.97 529.695C503.27 518.715 504.45 506.435 504.45 492.975C504.45 490.685 504.38 488.325 504.33 486.095C504.2 481.065 503.89 476.045 503.39 470.965C502.84 464.205 501.97 457.505 500.79 450.685C500.17 446.965 499.42 443.245 498.62 439.515C498.12 437.165 497.56 434.745 497.01 432.385C489.81 403.235 477.59 373.655 460.23 343.705C445.41 317.965 428.91 295.635 410.86 276.725C408.94 274.735 407.02 272.755 405.09 270.835C402.37 268.105 399.58 265.495 396.79 262.955C382.95 250.305 368.2 239.445 352.69 230.455L128.06 100.285L115.97 93.2748L99.35 83.6649C90.91 78.7048 82.66 74.6749 74.66 71.4448C60.84 65.7949 47.69 62.6948 35.35 62.1448C22.76 61.4648 10.97 63.5048 0 68.1548L115.72 10.2948L123.41 6.38483C134.58 1.54483 146.54 -0.555176 159.38 0.124817C178.79 0.994812 200.19 8.18481 223.38 21.6448L240 31.2548L476.73 168.445C497.63 180.595 517.1 195.975 534.9 214.705C552.95 233.625 569.44 255.945 584.26 281.685C601.63 311.635 613.84 341.225 621.04 370.375C625.38 388.415 627.92 406.335 628.36 424.075C628.42 426.305 628.48 428.665 628.48 430.965L628.48 430.965Z" fill="#487DE7" fill-opacity="1.000000" transform="matrix(1 0 0 1 65.26 260.965)"/></g><clipPath id="clip_48_316"><path d="M0 228L707 228L707 935L0 935L0 228L0 228Z"/></clipPath><g clip-path="url(#clip_48_316)"><path d="M586.249 531.685C597.389 525.285 606.429 516.835 613.359 506.345C625.409 488.075 631.469 463.455 631.529 432.465C631.529 430.835 631.489 428.525 631.409 425.535C630.979 408.155 628.529 390.145 624.049 371.515C616.779 342.065 604.469 312.375 587.109 282.435C572.289 256.695 555.769 234.275 537.539 215.175C519.829 196.535 500.329 181.035 479.029 168.645L242.309 31.465L225.689 21.845C202.249 8.245 180.689 1.005 161.009 0.125C151.689 -0.36499 142.769 0.584991 134.259 2.98502C130.899 3.935 127.599 5.10501 124.369 6.51501L116.599 10.455L0.878601 68.315C0.0385742 68.735 -0.201416 69.375 0.168579 70.245C0.558594 71.165 1.20862 71.425 2.1286 71.035C5.29858 69.695 8.52863 68.585 11.8086 67.685C19.7886 65.515 28.1286 64.665 36.8286 65.135C49.0486 65.695 61.9886 68.755 75.6586 74.335C83.8786 77.645 92.0386 81.695 100.149 86.465L116.769 96.075L128.859 103.085L353.489 233.255C369.009 242.255 383.619 253.025 397.319 265.565C400.569 268.515 403.319 271.125 405.589 273.385C406.859 274.665 408.779 276.625 411.329 279.255C429.399 298.195 445.779 320.425 460.479 345.955C477.689 375.645 489.899 405.065 497.099 434.235C497.759 437.035 498.299 439.395 498.699 441.335C499.589 445.445 500.309 449.145 500.859 452.435C502.039 459.275 502.909 465.995 503.449 472.605C503.939 477.665 504.249 482.675 504.379 487.635C504.459 490.605 504.499 492.875 504.499 494.475C504.499 507.775 503.349 519.905 501.059 530.885C498.109 544.895 493.359 556.835 486.819 566.705C480.149 576.805 471.449 584.935 460.719 591.105C459.909 591.575 459.709 592.225 460.129 593.075C460.349 593.525 460.629 593.805 460.969 593.915C461.309 594.025 461.689 593.965 462.139 593.745L578.909 535.325L586.249 531.685L586.249 531.685ZM628.529 432.465C628.469 462.845 622.579 486.925 610.859 504.695C604.189 514.775 595.509 522.895 584.789 529.065L577.579 532.635L476.839 583.035C481.569 578.695 485.729 573.805 489.329 568.365C496.069 558.175 500.969 545.885 503.989 531.495C506.329 520.325 507.499 507.975 507.499 494.475C507.499 492.855 507.458 490.545 507.379 487.555C507.249 482.525 506.939 477.445 506.439 472.315C505.889 465.645 505.009 458.855 503.819 451.925C503.259 448.605 502.539 444.855 501.639 440.705C501.219 438.745 500.679 436.365 500.019 433.545C492.749 404.085 480.429 374.385 463.079 344.445C448.259 318.715 431.729 296.305 413.499 277.185C410.929 274.535 408.999 272.555 407.709 271.265C405.409 268.965 402.619 266.325 399.349 263.345C385.479 250.665 370.699 239.765 354.999 230.655L130.369 100.485L118.269 93.475L101.649 83.865C93.4286 79.025 85.1386 74.925 76.7786 71.555C62.7986 65.845 49.5286 62.715 36.9686 62.145C30.3186 61.785 23.8686 62.165 17.6086 63.295L117.949 13.135L125.599 9.245C128.609 7.94501 131.679 6.845 134.799 5.95502C143.069 3.58499 151.759 2.63501 160.859 3.125C180.059 3.97501 201.169 11.085 224.179 24.445L240.799 34.055L477.519 171.235C498.569 183.475 517.849 198.815 535.359 217.235C553.429 236.175 569.809 258.405 584.509 283.935C601.729 313.625 613.929 343.055 621.129 372.225C625.559 390.645 627.989 408.435 628.409 425.615C628.489 428.585 628.529 430.865 628.529 432.465L628.529 432.465Z" fill="#487DE7" fill-opacity="1.000000" fill-rule="evenodd" transform="matrix(1 0 0 1 63.7114 259.465)"/></g></svg>