<svg width="1333" height="365" viewBox="0 0 1333 365" fill="none" xmlns="http://www.w3.org/2000/svg">
<path d="M1086.05 1.46639C1086.05 2.26625 1077.73 50.3912 1067.48 108.381C1057.22 166.371 1048.91 216.096 1048.91 218.762C1048.91 222.228 1050.09 224.627 1052.77 227.16C1056.33 230.36 1057.82 230.626 1068.37 230.626C1074.9 230.626 1080.1 230.893 1080.1 231.426C1080.1 232.093 1073.42 270.353 1071.93 278.218C1071.19 281.951 1070.45 282.617 1064.06 283.817C1043.11 287.816 1015.48 286.617 998.985 281.151C988.437 277.551 977.443 268.486 972.986 259.688C969.866 253.422 969.42 250.623 969.569 236.625C969.569 222.761 972.243 206.231 989.18 110.914C1000.03 50.6578 1008.79 0.933153 1008.79 0.666533C1008.79 0.26662 1026.17 0 1047.42 0C1074.76 0 1086.05 0.399913 1086.05 1.46639Z" fill="white"/>
<path d="M130.742 20.1298C130.742 21.3296 124.65 56.6568 122.57 67.5882L121.679 71.9874H144.856C159.713 71.9874 167.884 72.5206 167.884 73.3205C167.884 75.0535 160.604 116.78 159.713 120.912C158.97 123.845 158.376 123.978 135.645 124.245L112.468 124.645L103.851 173.303C94.3421 227.027 94.0449 229.96 97.462 231.16C98.7992 231.56 108.753 231.959 119.748 231.959C138.17 231.959 139.805 232.093 139.062 234.226C138.616 235.559 136.536 247.29 134.308 260.354L130.147 284.217L93.5992 283.684C61.5081 283.15 56.011 282.751 47.3939 280.218C28.674 274.752 19.3141 265.42 16.4914 249.556C14.7085 239.158 15.3028 233.426 25.8513 174.503C30.4569 149.174 34.1712 127.444 34.1712 126.111C34.1712 124.245 31.9427 123.978 17.0856 123.978C6.38856 123.978 0 123.445 0 122.645C0 120.912 7.27995 79.1862 8.31992 74.9202C8.91427 72.1207 9.50848 71.9874 26.5941 71.9874H44.1254L47.5425 52.9241C49.3253 42.5259 51.4052 30.528 52.2968 26.2621L53.7825 18.6634H92.2622C118.262 18.6634 130.742 19.0633 130.742 20.1298Z" fill="white"/>
<path fill-rule="evenodd" clip-rule="evenodd" d="M599.778 106.115C602.155 113.047 602.601 113.447 606.76 113.047L611.366 112.647L614.932 92.2505L618.349 71.9874H695.308L694.565 74.9202C694.129 76.6181 686.42 120.283 677.166 172.697L677.164 172.711L676.588 175.969C667.228 229.826 658.76 276.885 658.017 280.618C648.36 323.277 620.726 349.272 572.589 360.87C559.218 364.07 555.504 364.336 529.653 364.47C498.899 364.47 488.35 363.003 469.779 356.338C443.482 347.006 426.099 330.342 419.711 308.346C418.522 304.213 417.482 299.281 417.482 297.681V294.615H494.144L496.819 299.948C501.87 310.212 513.458 315.145 532.624 315.145C553.869 315.145 567.092 308.479 575.561 293.415C580.018 285.683 581.652 279.818 585.515 257.955C589.081 237.425 589.081 237.292 584.772 237.292C582.098 237.292 579.869 239.292 575.115 245.824C556.841 271.153 527.573 281.684 492.956 275.285C454.773 268.22 431.448 240.891 428.031 198.899C424.614 156.106 438.43 118.379 467.104 92.5171C476.762 83.852 481.664 80.6526 491.767 76.2533C514.053 66.655 538.418 64.7887 559.218 70.9209C578.235 76.52 594.281 90.5175 599.778 106.115ZM509.15 159.305C514.053 144.908 527.572 131.843 542.132 127.578C545.847 126.378 552.681 125.445 557.287 125.445C581.503 125.178 597.698 138.776 599.778 161.172C602.006 185.167 589.081 207.83 568.281 216.095C558.029 220.228 539.904 220.361 530.395 216.362C521.927 212.896 515.241 206.897 510.784 198.898C507.813 193.566 507.367 190.5 507.367 178.635C507.367 170.903 508.258 162.238 509.15 159.305Z" fill="white"/>
<path fill-rule="evenodd" clip-rule="evenodd" d="M872.107 105.715C874.484 111.847 875.375 112.647 879.387 113.047C881.912 113.314 883.992 113.047 883.992 112.38C883.992 110.781 889.786 78.5196 890.678 74.9202L891.421 71.9874H929.306C951.74 71.9874 967.192 72.5206 967.192 73.1872C967.192 77.853 930.94 280.084 928.563 288.616C914.301 339.807 866.015 367.136 794.107 364.87C767.662 363.936 752.359 360.87 734.531 353.138C709.571 342.207 695.011 324.61 690.257 299.548L689.217 294.615H766.622L768.256 298.348C770.188 302.747 776.427 308.879 781.628 311.412C788.61 314.612 804.359 316.078 815.056 314.612C840.016 311.012 850.118 299.148 856.507 266.22L857.483 261.109C861.057 242.397 861.841 238.295 860.35 237.458C859.933 237.223 859.336 237.244 858.573 237.272C858.301 237.281 858.009 237.292 857.695 237.292C854.278 237.292 852.793 238.625 849.078 244.224C846.701 247.957 840.907 254.356 836.301 258.488C802.427 289.149 739.879 281.018 714.622 242.758C697.834 217.295 695.159 176.369 708.085 139.709C717.148 114.113 734.234 92.9171 756.668 79.8527C775.982 68.5214 805.25 64.3887 828.278 69.5878C847.741 73.987 865.421 88.5179 872.107 105.715ZM794.999 139.309C773.753 159.972 773.605 197.032 794.404 211.563C803.021 217.562 809.262 219.295 821.593 219.295C840.461 219.161 855.615 211.03 864.381 196.365C870.472 185.967 872.255 179.302 872.255 166.504C872.255 152.107 869.135 143.841 860.37 135.976C849.375 126.111 832.141 122.645 816.393 127.178C806.736 129.977 801.684 132.777 794.999 139.309Z" fill="white"/>
<path fill-rule="evenodd" clip-rule="evenodd" d="M1259.58 71.5875C1306.08 83.5854 1332.82 117.846 1332.67 165.038C1332.53 172.237 1331.78 181.568 1330.74 185.967L1328.81 193.966L1248.88 194.366L1168.8 194.633L1169.84 203.031C1171.03 213.163 1176.68 224.227 1183.21 228.627C1199.85 239.958 1233.73 236.759 1244.57 222.761L1248.73 217.429L1286.32 217.295C1309.65 217.295 1323.76 217.829 1323.76 218.628C1323.76 219.295 1322.13 223.828 1320.19 228.493C1304.59 265.554 1262.85 287.816 1208.92 287.95C1148.45 287.95 1108.33 260.088 1097.93 210.63C1095.85 200.898 1095.85 175.703 1098.08 164.371C1105.36 124.378 1129.28 94.5168 1166.72 78.5196C1190.49 68.388 1211.89 65.7218 1243.98 68.788C1248.14 69.1879 1255.27 70.3877 1259.58 71.5875ZM1176.08 150.24C1181.73 133.71 1195.69 121.045 1211.89 117.313C1221.25 115.313 1234.47 116.913 1242.05 121.045C1249.92 125.311 1256.16 135.31 1257.65 146.241L1258.69 153.306H1175.04L1176.08 150.24Z" fill="white"/>
<path fill-rule="evenodd" clip-rule="evenodd" d="M322.1 70.1211C381.528 81.0525 417.482 127.844 410.351 185.301C409.311 193.3 407.082 203.964 405.448 208.897C391.482 249.423 353.448 279.285 306.203 286.617C292.98 288.75 265.495 288.483 253.015 286.083C207.404 277.551 175.016 249.156 165.656 209.43C162.833 197.299 162.833 172.636 165.507 159.705C175.313 113.58 215.13 77.9864 266.683 69.4545C279.163 67.4549 309.472 67.7215 322.1 70.1211ZM276.935 127.711C262.226 132.377 251.381 143.175 244.844 159.572C240.535 170.37 239.495 192.766 242.764 202.898C248.558 220.761 261.929 230.626 280.649 230.626C294.169 230.626 303.083 227.56 312.443 219.961C326.706 208.363 333.391 192.766 333.243 171.97C333.243 150.507 326.557 137.176 312.592 129.844C303.529 125.045 288.077 124.111 276.935 127.711Z" fill="white"/>
</svg>
